<svg width="32" height="32" viewBox="0 0 32 32" fill="none" xmlns="http://www.w3.org/2000/svg">
<path d="M28.4444 0H3.55556C1.59111 0 0 1.59111 0 3.55556V28.4444C0 30.4089 1.59111 32 3.55556 32H28.4444C30.4089 32 32 30.4089 32 28.4444V3.55556C32 1.59111 30.4089 0 28.4444 0ZM24.9778 11.5804C24.9778 11.7333 24.9778 11.8844 24.9778 12.1902C24.9778 17.9804 20.5582 24.6862 12.4818 24.6862C10.0444 24.6862 7.75822 23.9236 5.77778 22.7058C6.08178 22.7058 6.54044 22.7058 6.84444 22.7058C8.82489 22.7058 10.8071 21.9431 12.3307 20.8764C10.3502 20.8764 8.82667 19.5058 8.21689 17.8293C8.52089 17.8293 8.82667 17.9822 8.97956 17.9822C9.43644 17.9822 9.74222 17.9822 10.1991 17.8293C8.21867 17.3724 6.69511 15.696 6.69511 13.5627C7.30489 13.8667 7.91467 14.0196 8.67556 14.1724C7.456 13.1058 6.69511 11.8862 6.69511 10.3627C6.69511 9.6 6.848 8.83911 7.30489 8.22933C9.43822 10.8196 12.6382 12.6489 16.2951 12.8C16.2951 12.496 16.1422 12.1902 16.1422 11.7333C16.1422 9.296 18.1227 7.31378 20.5618 7.31378C21.7813 7.31378 22.9991 7.77067 23.7618 8.68445C24.8284 8.53156 25.7422 8.07467 26.5049 7.61778C26.2009 8.68444 25.4382 9.44711 24.5244 10.0551C25.4382 9.90222 26.2009 9.75111 27.1147 9.29245C26.5013 10.2098 25.7404 10.9707 24.9778 11.5804Z" fill="#191C1D"/>
</svg>
