<svg width="32" height="32" viewBox="0 0 32 32" fill="none" xmlns="http://www.w3.org/2000/svg">
<path d="M28.4444 0H3.55556C1.59111 0 0 1.59111 0 3.55556V28.4444C0 30.4089 1.59111 32 3.55556 32H17.104V19.6249H12.9387V14.7804H17.104V11.216C17.104 7.08444 19.6302 4.832 23.3173 4.832C24.56 4.82844 25.8009 4.89244 27.0364 5.01867V9.33867H24.4978C22.4889 9.33867 22.0978 10.288 22.0978 11.6889V14.7733H26.8978L26.2738 19.6178H22.0693V32H28.4444C30.4089 32 32 30.4089 32 28.4444V3.55556C32 1.59111 30.4089 0 28.4444 0Z" fill="#191C1D"/>
</svg>
