<svg width="32" height="32" viewBox="0 0 32 32" fill="none" xmlns="http://www.w3.org/2000/svg">
<path d="M8.88889 0C3.98044 0 0 3.98044 0 8.88889V23.1111C0 28.0196 3.98044 32 8.88889 32H23.1111C28.0196 32 32 28.0196 32 23.1111V8.88889C32 3.98044 28.0196 0 23.1111 0H8.88889ZM26.6667 3.55556C27.648 3.55556 28.4444 4.352 28.4444 5.33333C28.4444 6.31467 27.648 7.11111 26.6667 7.11111C25.6853 7.11111 24.8889 6.31467 24.8889 5.33333C24.8889 4.352 25.6853 3.55556 26.6667 3.55556ZM16 7.11111C20.9084 7.11111 24.8889 11.0916 24.8889 16C24.8889 20.9084 20.9084 24.8889 16 24.8889C11.0916 24.8889 7.11111 20.9084 7.11111 16C7.11111 11.0916 11.0916 7.11111 16 7.11111ZM16 10.6667C14.5855 10.6667 13.229 11.2286 12.2288 12.2288C11.2286 13.229 10.6667 14.5855 10.6667 16C10.6667 17.4145 11.2286 18.771 12.2288 19.7712C13.229 20.7714 14.5855 21.3333 16 21.3333C17.4145 21.3333 18.771 20.7714 19.7712 19.7712C20.7714 18.771 21.3333 17.4145 21.3333 16C21.3333 14.5855 20.7714 13.229 19.7712 12.2288C18.771 11.2286 17.4145 10.6667 16 10.6667Z" fill="#191C1D"/>
</svg>
