<svg width="32" height="32" viewBox="0 0 32 32" fill="none" xmlns="http://www.w3.org/2000/svg">
<path d="M28.4444 0H3.55556C1.59111 0 0 1.59111 0 3.55556V28.4444C0 30.4089 1.59111 32 3.55556 32H28.4444C30.4089 32 32 30.4089 32 28.4444V3.55556C32 1.59111 30.4089 0 28.4444 0ZM10.6667 24.8889H6.18133V12.4444H10.6667V24.8889ZM8.34489 10.1636C6.97422 10.1636 6.05867 9.24978 6.05867 8.03022C6.05867 6.81067 6.97244 5.89689 8.496 5.89689C9.86667 5.89689 10.7822 6.81067 10.7822 8.03022C10.7822 9.24978 9.86844 10.1636 8.34489 10.1636ZM26.6667 24.8889H22.3253V18.0871C22.3253 16.2062 21.168 15.7724 20.7342 15.7724C20.3004 15.7724 18.8533 16.0622 18.8533 18.0871C18.8533 18.3769 18.8533 24.8889 18.8533 24.8889H14.368V12.4444H18.8533V14.1813C19.4311 13.168 20.5884 12.4444 22.7591 12.4444C24.9298 12.4444 26.6667 14.1813 26.6667 18.0871V24.8889Z" fill="#191C1D"/>
</svg>
